Coordinates
version=1
nRows=9
nColumns=42
inDegrees=yes

Units are S.I. units (second, meters, Newtons, ...)
If the header above contains a line with 'inDegrees', this indicates whether rotational values are in degrees (yes) or radians (no).

endheader
time	pelvis_tilt	pelvis_list	pelvis_rotation	pelvis_tx	pelvis_ty	pelvis_tz	hip_flexion_r	hip_adduction_r	hip_rotation_r	knee_angle_r	knee_adduction_r	knee_angle_r_beta	ankle_angle_r	subtalar_angle_r	mtp_angle_r	hip_flexion_l	hip_adduction_l	hip_rotation_l	knee_angle_l	knee_adduction_l	knee_angle_l_beta	ankle_angle_l	subtalar_angle_l	mtp_angle_l	lumbar_extension	lumbar_bending	lumbar_rotation	arm_flex_r	arm_add_r	arm_rot_r	elbow_flex_r	pro_sup_r	wrist_flex_r	wrist_dev_r	arm_flex_l	arm_add_l	arm_rot_l	elbow_flex_l	pro_sup_l	wrist_flex_l	wrist_dev_l
      1.98000000	     16.35867124	     -1.41056211	     -1.73143756	      1.00923649	      0.86571436	     -0.19848928	     -0.51839242	      0.72687415	     -8.34794368	     62.28761120	     -9.09590658	      1.08712390	     14.53019709	    -17.61060118	     -7.50055245	    -15.86441848	      0.91821948	     -6.57908880	      8.32561388	      3.93976222	      0.14530937	     16.17095496	     -2.07439329	     -7.50055245	    -30.36733323	      0.51597241	      3.68455991	      2.81703945	     -7.14405114	     -2.88245961	     29.69075727	     90.00000001	      0.00000000	      0.00000000	     10.39072440	     -6.27048655	     -6.57256761	     30.84242621	     90.00000001	      0.00000000	      0.00000000
      1.99000000	     16.15434380	     -1.50281675	     -1.30432950	      1.01928145	      0.86558074	     -0.19977957	      1.10332967	      0.94247970	     -8.18981732	     61.12895392	     -8.41104009	      1.06690151	     15.49315448	    -17.69926494	     -7.50053683	    -16.69685928	      0.79661104	     -6.60713821	      7.62064146	      3.97351418	      0.13300528	     16.59897399	     -1.26461732	     -7.50053683	    -30.19014307	      0.85504794	      3.29871886	      1.98046619	     -7.05817768	     -3.25330180	     29.23749123	     90.00000001	      0.00000000	      0.00000000	     11.50375806	     -6.58762325	     -5.96425264	     31.75534070	     90.00000001	      0.00000000	      0.00000000
      2.00000000	     16.20421027	     -1.69054907	     -0.86391728	      1.02955439	      0.86565141	     -0.20091534	      2.23717812	      1.29511683	     -7.86216477	     59.46937958	     -7.59726680	      1.03793648	     16.03462495	    -17.84654276	     -7.50050893	    -17.89242962	      0.53888539	     -6.73333576	      6.79979102	      4.04419240	      0.11867874	     16.91326629	     -0.42953579	     -7.50050893	    -30.26146297	      1.27330188	      2.99897686	      1.09603807	     -6.91311852	     -4.13091333	     28.97615448	     90.00000001	      0.00000000	      0.00000000	     12.49695402	     -7.03550795	     -4.65153750	     32.96853622	     90.00000001	      0.00000000	      0.00000000
      2.01000000	     15.97573473	     -1.68987279	     -0.45214728	      1.03963550	      0.86503546	     -0.20208637	      3.72729842	      1.36123368	     -7.65715308	     57.77286664	     -6.85724975	      1.00832674	     16.74242578	    -17.93819050	     -7.50049703	    -18.64615054	      0.50910782	     -6.80465143	      6.20553081	      4.03040242	      0.10830694	     17.35304023	      0.34577470	     -7.50049703	    -30.04339223	      1.49427428	      2.61722157	      0.17918539	     -6.83513280	     -4.42776367	     28.73932976	     90.00000001	      0.00000000	      0.00000000	     13.60670104	     -7.30367015	     -4.23028755	     33.93106585	     90.00000001	      0.00000000	      0.00000000
      2.02000000	     16.10322455	     -1.89164793	     -0.00808349	      1.05003417	      0.86478718	     -0.20298317	      4.54618986	      1.70573853	     -7.35435738	     55.49136789	     -6.03860873	      0.96850708	     16.93809795	    -17.94806266	     -7.50047085	    -19.93135950	      0.13531768	     -6.95857138	      5.42155189	      4.25001969	      0.09462393	     17.67966936	      1.26329338	     -7.50047085	    -30.17148231	      1.90061041	      2.37181522	     -0.76719185	     -6.69162066	     -5.26733617	     28.67933151	     90.00000001	      0.00000000	      0.00000000	     14.57900084	     -7.74882176	     -2.95154564	     35.23454771	     90.00000001	      0.00000000	      0.00000000
      2.03000000	     16.07036002	     -1.95280715	      0.39869998	      1.06030458	      0.86409668	     -0.20389018	      5.53766761	      1.85611745	     -7.20768548	     53.11074433	     -5.37658658	      0.92695736	     17.16822181	    -17.94205840	     -7.50044683	    -20.94119619	     -0.04984514	     -7.11951418	      4.80629480	      4.36778040	      0.08388567	     18.06894689	      2.08451921	     -7.50044683	    -30.13802552	      2.15084795	      2.09421603	     -1.71376606	     -6.56965518	     -5.82113772	     28.60776053	     90.00000001	      0.00000000	      0.00000000	     15.61639345	     -8.07580008	     -2.11759703	     36.40911015	     90.00000001	      0.00000000	      0.00000000
      2.04000000	     15.89529184	     -1.87039533	      0.72730902	      1.07038923	      0.86299392	     -0.20480948	      6.67609032	      1.76300580	     -7.11137441	     50.64665003	     -4.70444646	      0.88395080	     17.44520579	    -17.93676380	     -7.50043500	    -21.72464629	     -0.00747976	     -7.15333141	      4.31814007	      4.36532711	      0.07536576	     18.58444872	      2.92522121	     -7.50043500	    -29.97228853	      2.23012954	      1.81877771	     -2.60980060	     -6.49106067	     -6.08844322	     28.52197019	     90.00000001	      0.00000000	      0.00000000	     16.70839204	     -8.29749897	     -1.73267368	     37.47096180	     90.00000001	      0.00000000	      0.00000000
      2.05000000	     15.95753771	     -1.97605460	      1.10399724	      1.08072177	      0.86213484	     -0.20541367	      7.32370036	      1.96372506	     -7.14294315	     47.73262507	     -4.16296976	      0.83309147	     17.30753479	    -17.82095044	     -7.50041977	    -22.85097787	     -0.33058250	     -7.40761787	      3.72791159	      4.64044473	      0.06506433	     18.95187794	      3.77163250	     -7.50041977	    -30.03851726	      2.48620808	      1.56388372	     -3.48660740	     -6.36870098	     -6.54552816	     28.59363302	     90.00000001	      0.00000000	      0.00000000	     17.69319336	     -8.63515010	     -0.97504045	     38.65372739	     90.00000001	      0.00000000	      0.00000000
      2.06000000	     15.86416895	     -1.92223523	      1.37341449	      1.09086215	      0.86087819	     -0.20602703	      8.15859484	      1.95375950	     -7.33580918	     44.81037148	     -3.80129544	      0.78208852	     17.26886691	    -17.64598412	     -7.50040776	    -23.69318643	     -0.33720263	     -7.58046446	      3.35413343	      4.64070948	      0.05854067	     19.42065065	      4.50715518	     -7.50040776	    -29.95807811	      2.54111845	      1.39847485	     -4.33625414	     -6.27792423	     -6.85809001	     28.57131227	     90.00000001	      0.00000000	      0.00000000	     18.75343807	     -8.84384000	     -0.41736817	     39.73805602	     90.00000001	      0.00000000	      0.00000000
